<?xml version="1.0" encoding="UTF-8" standalone="no"?>
<!-- Created with Inkscape (http://www.inkscape.org/) -->

<svg
   xmlns:dc="http://purl.org/dc/elements/1.1/"
   xmlns:cc="http://creativecommons.org/ns#"
   xmlns:rdf="http://www.w3.org/1999/02/22-rdf-syntax-ns#"
   xmlns:svg="http://www.w3.org/2000/svg"
   xmlns="http://www.w3.org/2000/svg"
   xmlns:sodipodi="http://sodipodi.sourceforge.net/DTD/sodipodi-0.dtd"
   xmlns:inkscape="http://www.inkscape.org/namespaces/inkscape"
   width="116.10442mm"
   height="116.10453mm"
   viewBox="0 0 116.10442 116.10453"
   version="1.1"
   id="svg8"
   inkscape:version="0.92.3 (2405546, 2018-03-11)"
   sodipodi:docname="logo_inkscape_construction_v2.svg">
  <defs
     id="defs2" />
  <sodipodi:namedview
     id="base"
     pagecolor="#ffffff"
     bordercolor="#666666"
     borderopacity="1.0"
     inkscape:pageopacity="0.0"
     inkscape:pageshadow="2"
     inkscape:zoom="0.35"
     inkscape:cx="-171.42857"
     inkscape:cy="591.72801"
     inkscape:document-units="mm"
     inkscape:current-layer="layer1"
     showgrid="false"
     inkscape:measure-start="354.286,467.143"
     inkscape:measure-end="671.429,287.143"
     inkscape:window-width="1366"
     inkscape:window-height="705"
     inkscape:window-x="-8"
     inkscape:window-y="-8"
     inkscape:window-maximized="1"
     inkscape:snap-center="true"
     inkscape:snap-intersection-paths="true"
     showguides="false"
     fit-margin-top="0"
     fit-margin-left="0"
     fit-margin-right="0"
     fit-margin-bottom="0" />
  <metadata
     id="metadata5">
    <rdf:RDF>
      <cc:Work
         rdf:about="">
        <dc:format>image/svg+xml</dc:format>
        <dc:type
           rdf:resource="http://purl.org/dc/dcmitype/StillImage" />
        <dc:title></dc:title>
      </cc:Work>
    </rdf:RDF>
  </metadata>
  <g
     inkscape:label="Layer 1"
     inkscape:groupmode="layer"
     id="layer1"
     transform="translate(-11.969636,-23.54207)">
    <path
       style="fill:#74ff00;fill-opacity:1;stroke:#0040ff;stroke-width:0.9355818;stroke-linecap:round;stroke-miterlimit:4;stroke-dasharray:none;stroke-dashoffset:0;stroke-opacity:1"
       d="m -258.44661,-175.74424 9.73222,9.73223 a 49.293054,49.293054 0 0 1 39.56089,48.32004 49.293054,49.293054 0 0 1 -6.5722,24.510134 l 11.17089,-2.993615 a 58.052165,58.052165 0 0 0 4.16047,-21.516519 58.052165,58.052165 0 0 0 -58.05227,-58.05227 z"
       id="path4683-2-2"
       inkscape:connector-curvature="0" />
    <path
       style="fill:none;fill-opacity:1;stroke:#0040ff;stroke-width:0.86500001;stroke-linecap:round;stroke-miterlimit:4;stroke-dasharray:none;stroke-dashoffset:0;stroke-opacity:1"
       d="m -204.77386,-117.69193 a 53.672619,53.672619 0 0 1 -53.67262,53.672624 53.672619,53.672619 0 0 1 -53.67262,-53.672624 53.672619,53.672619 0 0 1 53.67262,-53.67261 53.672619,53.672619 0 0 1 53.67262,53.67261 z"
       id="path4511"
       inkscape:connector-curvature="0" />
    <path
       style="fill:none;fill-rule:evenodd;stroke:#000000;stroke-width:0.26458332px;stroke-linecap:butt;stroke-linejoin:miter;stroke-opacity:1"
       d="m -258.44648,-117.69193 v -53.67261"
       id="path4666"
       inkscape:connector-curvature="0" />
    <path
       style="fill:none;fill-rule:evenodd;stroke:#000000;stroke-width:0.26458332px;stroke-linecap:butt;stroke-linejoin:miter;stroke-opacity:1"
       d="m -258.44648,-117.69193 46.48186,26.836314"
       id="path4666-2"
       inkscape:connector-curvature="0" />
    <path
       id="path4683"
       d="m -204.77386,-117.69193 a 53.672619,53.672619 0 0 1 -53.67262,53.672624 53.672619,53.672619 0 0 1 -53.67262,-53.672624 53.672619,53.672619 0 0 1 53.67262,-53.67261 53.672619,53.672619 0 0 1 53.67262,53.67261 z"
       style="fill:none;fill-opacity:1;stroke:#0040ff;stroke-width:0.86500001;stroke-linecap:round;stroke-miterlimit:4;stroke-dasharray:none;stroke-dashoffset:0;stroke-opacity:1"
       inkscape:connector-curvature="0" />
    <path
       style="fill:none;fill-opacity:1;stroke:#ff0000;stroke-width:0.59890741;stroke-linecap:round;stroke-miterlimit:4;stroke-dasharray:none;stroke-dashoffset:0;stroke-opacity:1"
       d="m -254.06692,-171.36454 a 4.3795569,4.3795569 0 0 1 -4.37956,4.37955 4.3795569,4.3795569 0 0 1 -4.37956,-4.37955 4.3795569,4.3795569 0 0 1 4.37956,-4.37956 4.3795569,4.3795569 0 0 1 4.37956,4.37956 z"
       id="path4715"
       inkscape:connector-curvature="0" />
    <path
       style="fill:none;fill-opacity:1;stroke:#ff0000;stroke-width:0.59890741;stroke-linecap:round;stroke-miterlimit:4;stroke-dasharray:none;stroke-dashoffset:0;stroke-opacity:1"
       d="m -207.58507,-90.855606 a 4.3795569,4.3795569 0 0 1 -4.37956,4.37955 4.3795569,4.3795569 0 0 1 -4.37956,-4.37955 4.3795569,4.3795569 0 0 1 4.37956,-4.37956 4.3795569,4.3795569 0 0 1 4.37956,4.37956 z"
       id="path4715-4"
       inkscape:connector-curvature="0" />
    <path
       id="path4816"
       d="m -308.72119,-88.665656 3.56224,-13.294464 a 49.293054,49.293054 0 0 1 22.06594,-58.42076 49.293054,49.293054 0 0 1 24.5125,-6.56337 l -8.17799,-8.17747 a 58.052165,58.052165 0 0 0 -20.71408,7.15519 58.052165,58.052165 0 0 0 -21.24861,79.300874 z"
       style="fill:#74ff00;fill-opacity:1;stroke:#0040ff;stroke-width:0.9355818;stroke-linecap:round;stroke-miterlimit:4;stroke-dasharray:none;stroke-dashoffset:0;stroke-opacity:1"
       inkscape:connector-curvature="0"
       inkscape:transform-center-x="29.093154"
       inkscape:transform-center-y="-14.20176" />
    <path
       inkscape:transform-center-y="41.397223"
       inkscape:transform-center-x="-2.3475962"
       inkscape:connector-curvature="0"
       style="fill:#74ff00;fill-opacity:1;stroke:#0040ff;stroke-width:0.9355818;stroke-linecap:round;stroke-miterlimit:4;stroke-dasharray:none;stroke-dashoffset:0;stroke-opacity:1"
       d="m -208.17164,-88.665886 -13.29446,3.56224 a 49.293054,49.293054 0 0 1 -61.62683,10.10071 49.293054,49.293054 0 0 1 -17.94029,-17.94676 l -2.99291,11.17109 a 58.052165,58.052165 0 0 0 16.55362,14.36133 58.052165,58.052165 0 0 0 79.30087,-21.24861 z"
       id="path4818" />
    <g
       id="g4859"
       transform="translate(-70.031131,-138.4283)"
       style="fill:#ce0000;fill-opacity:1;stroke:none">
      <path
         id="path4683-2-2-1"
         d="m 140.05291,161.97037 9.73222,9.73222 a 49.293055,49.293055 0 0 1 39.56089,48.32005 49.293055,49.293055 0 0 1 -6.5722,24.51013 l 11.17089,-2.99361 a 58.052166,58.052166 0 0 0 4.16047,-21.51652 58.052166,58.052166 0 0 0 -58.05227,-58.05227 z"
         style="fill:#ce0000;fill-opacity:1;stroke:none;stroke-width:0.9355818;stroke-linecap:round;stroke-miterlimit:4;stroke-dasharray:none;stroke-dashoffset:0;stroke-opacity:1"
         inkscape:connector-curvature="0" />
      <path
         inkscape:transform-center-y="-14.20176"
         inkscape:transform-center-x="29.093154"
         inkscape:connector-curvature="0"
         style="fill:#ce0000;fill-opacity:1;stroke:none;stroke-width:0.9355818;stroke-linecap:round;stroke-miterlimit:4;stroke-dasharray:none;stroke-dashoffset:0;stroke-opacity:1"
         d="m 89.778331,249.04895 3.562241,-13.29446 a 49.293055,49.293055 0 0 1 22.065948,-58.42076 49.293055,49.293055 0 0 1 24.51249,-6.56337 l -8.17799,-8.17747 a 58.052166,58.052166 0 0 0 -20.71408,7.15519 58.052166,58.052166 0 0 0 -21.248609,79.30087 z"
         id="path4816-0" />
      <path
         id="path4818-7"
         d="m 190.32788,249.04872 -13.29446,3.56224 A 49.293055,49.293055 0 0 1 115.40659,262.71167 49.293055,49.293055 0 0 1 97.466296,244.76491 L 94.473394,255.936 a 58.052166,58.052166 0 0 0 16.553616,14.36134 58.052166,58.052166 0 0 0 79.30087,-21.24862 z"
         style="fill:#ce0000;fill-opacity:1;stroke:none;stroke-width:0.9355818;stroke-linecap:round;stroke-miterlimit:4;stroke-dasharray:none;stroke-dashoffset:0;stroke-opacity:1"
         inkscape:connector-curvature="0"
         inkscape:transform-center-x="-2.3475962"
         inkscape:transform-center-y="41.397223" />
    </g>
  </g>
</svg>
