<?xml version="1.0" encoding="UTF-8" standalone="no"?>
<!-- Created with Inkscape (http://www.inkscape.org/) -->

<svg
   xmlns:dc="http://purl.org/dc/elements/1.1/"
   xmlns:cc="http://creativecommons.org/ns#"
   xmlns:rdf="http://www.w3.org/1999/02/22-rdf-syntax-ns#"
   xmlns:svg="http://www.w3.org/2000/svg"
   xmlns="http://www.w3.org/2000/svg"
   xmlns:sodipodi="http://sodipodi.sourceforge.net/DTD/sodipodi-0.dtd"
   xmlns:inkscape="http://www.inkscape.org/namespaces/inkscape"
   width="116.10442mm"
   height="116.10453mm"
   viewBox="0 0 116.10442 116.10453"
   version="1.1"
   id="svg8"
   inkscape:version="0.92.4 (5da689c313, 2019-01-14)"
   sodipodi:docname="logo.svg"
   inkscape:export-filename="C:\Users\00174000\Nextcloud\Images\logo\current\thin\logo.png"
   inkscape:export-xdpi="88.321335"
   inkscape:export-ydpi="88.321335">
  <defs
     id="defs2" />
  <sodipodi:namedview
     id="base"
     pagecolor="#ffffff"
     bordercolor="#666666"
     borderopacity="1.0"
     inkscape:pageopacity="0.0"
     inkscape:pageshadow="2"
     inkscape:zoom="0.35"
     inkscape:cx="-648.57143"
     inkscape:cy="363.15658"
     inkscape:document-units="mm"
     inkscape:current-layer="layer1"
     showgrid="false"
     inkscape:measure-start="354.286,467.143"
     inkscape:measure-end="671.429,287.143"
     inkscape:window-width="1920"
     inkscape:window-height="1001"
     inkscape:window-x="1069"
     inkscape:window-y="1341"
     inkscape:window-maximized="1"
     inkscape:snap-center="true"
     inkscape:snap-intersection-paths="true"
     showguides="false"
     fit-margin-top="0"
     fit-margin-left="0"
     fit-margin-right="0"
     fit-margin-bottom="0" />
  <metadata
     id="metadata5">
    <rdf:RDF>
      <cc:Work
         rdf:about="">
        <dc:format>image/svg+xml</dc:format>
        <dc:type
           rdf:resource="http://purl.org/dc/dcmitype/StillImage" />
        <dc:title />
      </cc:Work>
    </rdf:RDF>
  </metadata>
  <g
     inkscape:label="Layer 1"
     inkscape:groupmode="layer"
     id="layer1"
     transform="translate(-11.969636,-23.54207)">
    <g
       id="g4859"
       transform="translate(-70.031131,-138.4283)"
       style="fill:#c00000;fill-opacity:1;stroke:none"
       inkscape:export-xdpi="88.321335"
       inkscape:export-ydpi="88.321335">
      <path
         id="path4683-2-2-1"
         d="m 140.05291,161.97037 9.73222,9.73222 a 49.293055,49.293055 0 0 1 39.56089,48.32005 49.293055,49.293055 0 0 1 -6.5722,24.51013 l 11.17089,-2.99361 a 58.052166,58.052166 0 0 0 4.16047,-21.51652 58.052166,58.052166 0 0 0 -58.05227,-58.05227 z"
         style="fill:#c00000;fill-opacity:1;stroke:none;stroke-width:0.9355818;stroke-linecap:round;stroke-miterlimit:4;stroke-dasharray:none;stroke-dashoffset:0;stroke-opacity:1"
         inkscape:connector-curvature="0" />
      <path
         inkscape:transform-center-y="-14.20176"
         inkscape:transform-center-x="29.093154"
         inkscape:connector-curvature="0"
         style="fill:#c00000;fill-opacity:1;stroke:none;stroke-width:0.9355818;stroke-linecap:round;stroke-miterlimit:4;stroke-dasharray:none;stroke-dashoffset:0;stroke-opacity:1"
         d="m 89.778331,249.04895 3.562241,-13.29446 a 49.293055,49.293055 0 0 1 22.065948,-58.42076 49.293055,49.293055 0 0 1 24.51249,-6.56337 l -8.17799,-8.17747 a 58.052166,58.052166 0 0 0 -20.71408,7.15519 58.052166,58.052166 0 0 0 -21.248609,79.30087 z"
         id="path4816-0" />
      <path
         id="path4818-7"
         d="m 190.32788,249.04872 -13.29446,3.56224 A 49.293055,49.293055 0 0 1 115.40659,262.71167 49.293055,49.293055 0 0 1 97.466296,244.76491 L 94.473394,255.936 a 58.052166,58.052166 0 0 0 16.553616,14.36134 58.052166,58.052166 0 0 0 79.30087,-21.24862 z"
         style="fill:#c00000;fill-opacity:1;stroke:none;stroke-width:0.9355818;stroke-linecap:round;stroke-miterlimit:4;stroke-dasharray:none;stroke-dashoffset:0;stroke-opacity:1"
         inkscape:connector-curvature="0"
         inkscape:transform-center-x="-2.3475962"
         inkscape:transform-center-y="41.397223" />
    </g>
  </g>
</svg>
